<svg version="1.1" id="Layer_1" xmlns="http://www.w3.org/2000/svg" xmlns:xlink="http://www.w3.org/1999/xlink" x="0px" y="0px" width="40px" height="40px" viewBox="0 0 133 133" enable-background="new 0 0 133 133" xml:space="preserve">
<path d="M114.045,110.988c1.509-2.825,2.367-6.048,2.367-9.47c0-3.113-0.71-6.064-1.976-8.7
	c9.765-7.602,16.063-19.455,16.063-32.759c0-22.887-18.621-41.507-41.508-41.507c-7.799,0-15.098,2.165-21.338,5.92
	c-1.379-0.193-2.767-0.297-4.154-0.297c-1.03,0-2.047,0.059-3.055,0.161c-6.176-6.529-14.91-10.614-24.585-10.614
	C17.189,13.722,2,28.911,2,47.582c0,12.525,6.842,23.476,16.979,29.333c1.266,4.31,5.029,7.979,6.246,8.053
	c2.313,0.14-1.225-2.308-2.828-6.325c4.129,1.797,8.681,2.799,13.463,2.799c3.871,0,7.589-0.662,11.057-1.863
	c2.334,1.534,4.89,2.75,7.618,3.597c5.131,7.624,12.724,13.452,21.627,16.354c-0.064,0.655-0.099,1.318-0.099,1.99
	c0,11.124,9.05,20.175,20.174,20.175c6.872,0,12.949-3.457,16.594-8.72c0.044,0.014,0.084,0.039,0.128,0.051
	c4.05,1.067,8.607-3.246,8.676-4.368C121.765,106.525,118.659,111.687,114.045,110.988z M115.511,101.519
	c0,3.347-0.861,6.494-2.367,9.239c-4.347-1.598-6.142-10.123-9.544-11.416c-0.234-0.089-0.454-0.15-0.666-0.191
	c3.884-1.388,7.503-3.337,10.757-5.754C114.846,95.868,115.511,98.614,115.511,101.519z M73.452,89.975
	c-1.171-2.009-1.922-4.181-2.259-6.412c7.535-1.983,14.029-6.829,18.083-13.464c3.454-0.158,6.605-2.192,8.148-5.339
	c7.054,3.646,11.031,11.622,9.438,19.621c-3.088-1.923-6.729-3.036-10.626-3.036c-8.686,0-16.107,5.518-18.942,13.232
	C75.79,93.279,74.481,91.742,73.452,89.975z M63.538,80.045c-2.203,0-4.411-0.288-6.562-0.854c-1.623-0.429-3.18-1.006-4.658-1.72
	c-0.04-0.082-0.074-0.165-0.112-0.247C62.638,71.447,69.72,60.328,69.72,47.582c0-6.986-2.128-13.484-5.768-18.883
	c2.053,0.037,4.106,0.312,6.112,0.84c6.631,1.748,12.184,5.973,15.637,11.899c1.149,1.972,2.015,4.056,2.6,6.201
	c-1.146,0.898-2.021,1.843-2.421,2.894c-0.135,0.354-0.227,0.688-0.287,1.007c-2.854,1.033-5.173,3.401-6.007,6.56
	c-0.383,1.455-0.399,2.917-0.124,4.299c-5.06,2.652-8.96,7.337-10.49,13.141c-0.354,1.338-0.57,2.69-0.655,4.04
	C66.76,79.876,65.165,80.045,63.538,80.045z M38.927,58.436c0.135-0.354,0.226-0.687,0.287-1.005
	c2.855-1.033,5.174-3.401,6.007-6.56c1.018-3.864-0.48-7.796-3.479-10.068c4.301-6.903,11.709-11.487,20.038-12.046
	c-8.749,7.615-14.295,18.82-14.295,31.302c0,5.956,1.271,11.619,3.539,16.743c-3.991-2.213-7.329-5.465-9.687-9.51
	c-1.435-2.463-2.429-5.098-2.983-7.811C38.593,59.143,38.79,58.796,38.927,58.436z M68.817,47.582
	c0,12.382-6.865,23.185-16.986,28.817c-2.208-5.003-3.444-10.528-3.444-16.339c0-12.505,5.686-23.705,14.604-31.159
	C66.661,34.213,68.817,40.649,68.817,47.582z M71.586,76.23c1.297-4.92,4.551-8.918,8.787-11.254
	c0.911,1.737,2.343,3.195,4.162,4.109c-3.258,4.649-7.983,8.104-13.422,9.793C71.212,77.992,71.354,77.107,71.586,76.23z
	 M101.879,97.302c3.278-2.547,5.786-6.077,7.085-10.218c1.754,1.549,3.229,3.402,4.329,5.488c-3.24,2.429-6.858,4.377-10.743,5.757
	C102.359,97.967,102.135,97.623,101.879,97.302z M96.237,82.247c3.842,0,7.416,1.142,10.426,3.087
	c-0.013,0.045-0.017,0.091-0.029,0.136c-1.099,4.169-3.609,7.669-6.926,10.065c-0.393-0.195-0.81-0.355-1.251-0.471
	c-3.196-0.843-6.46,0.85-7.675,3.832c-0.548,0.05-1.101,0.081-1.659,0.081c-1.555,0-3.114-0.204-4.633-0.604
	c-2.376-0.626-4.554-1.708-6.442-3.163C80.669,87.678,87.823,82.247,96.237,82.247z M80.336,99.728
	c-1.072-0.234-2.132-0.507-3.172-0.824c0.042-0.306,0.084-0.611,0.14-0.911C78.263,98.65,79.271,99.235,80.336,99.728z
	 M88.992,19.454c22.391,0,40.605,18.215,40.605,40.605c0,12.954-6.104,24.5-15.578,31.941c-1.207-2.246-2.83-4.237-4.762-5.875
	c2.551-9.742-2.269-19.715-10.993-23.982c0.684-3.986-1.23-7.906-4.63-9.876c-0.105-1.542-0.329-3.073-0.673-4.582
	c4.503-3.522,11.899-6.575,13.044-10.919c1.571-5.96-4.774-12.662-6.425-12.762c-3.205-0.195,4.831,4.579,3.371,11.622
	c-0.882,4.252-6.194,6.898-10.705,9.478c-0.663-2.044-1.543-4.034-2.65-5.935c-4.061-6.966-10.589-11.933-18.384-13.988
	c-0.712-0.188-1.43-0.342-2.15-0.477C74.955,21.368,81.753,19.454,88.992,19.454z M2.902,47.582
	c0-18.173,14.785-32.958,32.958-32.958c9.178,0,17.487,3.773,23.468,9.846c-9.143,1.278-17.145,6.693-21.782,14.528
	c-4.825-0.813-9.559,2.172-10.83,6.995c-1.347,5.105,1.695,10.332,6.795,11.687c0.068,0.618,0.153,1.234,0.259,1.846
	C29.91,63.85,20.13,67.154,18.8,72.204c-0.305,1.156-0.306,2.341-0.106,3.5C9.23,69.906,2.902,59.47,2.902,47.582z M35.86,80.54
	c-4.947,0-9.638-1.103-13.853-3.063c-0.343-1.26-0.461-2.646-0.153-4.133c1.013-4.885,7.874-7.649,12.649-10.629
	c0.685,2.366,1.667,4.664,2.939,6.847c2.19,3.759,5.105,6.929,8.545,9.38C42.794,79.976,39.392,80.54,35.86,80.54z M55.917,83.569
	c2.499,0.651,5.062,0.984,7.621,0.984c1.701,0,3.376-0.144,5.011-0.42c0.402,2.507,1.249,4.945,2.565,7.203
	c1.399,2.399,3.222,4.455,5.368,6.09c-0.081,0.392-0.149,0.788-0.206,1.188C67.991,95.875,60.884,90.538,55.917,83.569z
	 M96.237,120.791c-10.626,0-19.271-8.646-19.271-19.272c0-0.576,0.037-1.146,0.086-1.71c2.907,0.875,5.949,1.436,9.084,1.649
	c0.992,0.145,1.989,0.225,2.987,0.225c0.396,0,0.785-0.027,1.176-0.049c0.118,2.772,2.018,5.264,4.843,6.009
	c3.475,0.916,7.032-1.157,7.948-4.632c0.079-0.302,0.128-0.604,0.164-0.904c3.2,1.559,5.446,8.505,8.735,10.481
	C108.498,117.54,102.744,120.791,96.237,120.791z"/>
</svg>